HIERARCHY
ROOT Hip
{
	OFFSET 0.000000 0.000000 0.000000
	CHANNELS 6 Xposition Yposition Zposition Xrotation Yrotation Zrotation
	JOINT LowerSpine
	{
		OFFSET 0.000000 5.515799 9.266301
		CHANNELS 6 Xposition Yposition Zposition Xrotation Yrotation Zrotation
		JOINT MiddleSpine
		{
			OFFSET 0.000000 -0.397602 8.456199
			CHANNELS 6 Xposition Yposition Zposition Xrotation Yrotation Zrotation
			JOINT Chest
			{
				OFFSET 0.000000 2.096198 10.463503
				CHANNELS 6 Xposition Yposition Zposition Xrotation Yrotation Zrotation
				JOINT Neck
				{
					OFFSET 0.000000 0.441296 23.579298
					CHANNELS 6 Xposition Yposition Zposition Xrotation Yrotation Zrotation
					JOINT Head
					{
						OFFSET -0.000100 -3.621802 13.315502
						CHANNELS 6 Xposition Yposition Zposition Xrotation Yrotation Zrotation
						End Site
						{
							OFFSET 0.000100 -0.555403 18.605103
						}
					}
				}
				JOINT LClavicle
				{
					OFFSET 2.142500 -7.016503 22.755198
					CHANNELS 6 Xposition Yposition Zposition Xrotation Yrotation Zrotation
					JOINT LShoulder
					{
						OFFSET 12.516600 5.281299 3.263901
						CHANNELS 6 Xposition Yposition Zposition Xrotation Yrotation Zrotation
						JOINT LForearm
						{
							OFFSET 29.541901 0.256001 -0.104698
							CHANNELS 6 Xposition Yposition Zposition Xrotation Yrotation Zrotation
							JOINT LHand
							{
								OFFSET 24.644199 0.147600 0.071499
								CHANNELS 6 Xposition Yposition Zposition Xrotation Yrotation Zrotation
								JOINT LFinger1
								{
									OFFSET 9.551399 -2.652900 0.835300
									CHANNELS 6 Xposition Yposition Zposition Xrotation Yrotation Zrotation
									JOINT LFinger11
									{
										OFFSET 3.572701 -0.629500 -0.871201
										CHANNELS 6 Xposition Yposition Zposition Xrotation Yrotation Zrotation
										JOINT LFinger12
										{
											OFFSET 2.439003 -0.429900 -0.594898
											CHANNELS 6 Xposition Yposition Zposition Xrotation Yrotation Zrotation
											End Site
											{
												OFFSET 1.735603 -0.281500 -0.518101
											}
										}
									}
								}
								JOINT LFinger2
								{
									OFFSET 9.693901 -0.231000 0.964600
									CHANNELS 6 Xposition Yposition Zposition Xrotation Yrotation Zrotation
									JOINT LFinger21
									{
										OFFSET 4.417397 0.026100 0.012299
										CHANNELS 6 Xposition Yposition Zposition Xrotation Yrotation Zrotation
										JOINT LFinger22
										{
											OFFSET 2.448601 0.014900 0.007500
											CHANNELS 6 Xposition Yposition Zposition Xrotation Yrotation Zrotation
											End Site
											{
												OFFSET 2.199303 -0.002900 -0.155300
											}
										}
									}
								}
								JOINT LFinger3
								{
									OFFSET 9.186996 2.173501 0.643799
									CHANNELS 6 Xposition Yposition Zposition Xrotation Yrotation Zrotation
									JOINT LFinger31
									{
										OFFSET 4.008400 0.251000 -0.202900
										CHANNELS 6 Xposition Yposition Zposition Xrotation Yrotation Zrotation
										JOINT LFinger32
										{
											OFFSET 2.284203 0.143500 -0.114899
											CHANNELS 6 Xposition Yposition Zposition Xrotation Yrotation Zrotation
											End Site
											{
												OFFSET 2.019600 0.095500 -0.248299
											}
										}
									}
								}
								JOINT LFinger4
								{
									OFFSET 8.525200 3.753601 -0.647800
									CHANNELS 6 Xposition Yposition Zposition Xrotation Yrotation Zrotation
									JOINT LFinger41
									{
										OFFSET 2.465500 0.680600 -0.514198
										CHANNELS 6 Xposition Yposition Zposition Xrotation Yrotation Zrotation
										JOINT LFinger42
										{
											OFFSET 1.807999 0.499400 -0.376499
											CHANNELS 6 Xposition Yposition Zposition Xrotation Yrotation Zrotation
											End Site
											{
												OFFSET 1.604698 0.368200 -0.440899
											}
										}
									}
								}
								JOINT LFinger0
								{
									OFFSET 1.975899 -1.497900 -1.495499
									CHANNELS 6 Xposition Yposition Zposition Xrotation Yrotation Zrotation
									JOINT LFinger01
									{
										OFFSET 3.678703 -2.773500 -1.208099
										CHANNELS 6 Xposition Yposition Zposition Xrotation Yrotation Zrotation
										JOINT LFinger02
										{
											OFFSET 2.422401 -1.745200 -0.866798
											CHANNELS 6 Xposition Yposition Zposition Xrotation Yrotation Zrotation
											End Site
											{
												OFFSET 1.781303 -1.219800 -0.613201
											}
										}
									}
								}
							}
						}
					}
				}
				JOINT RClavicle
				{
					OFFSET -2.142500 -7.016403 22.755198
					CHANNELS 6 Xposition Yposition Zposition Xrotation Yrotation Zrotation
					JOINT RShoulder
					{
						OFFSET -12.518800 5.282199 3.264500
						CHANNELS 6 Xposition Yposition Zposition Xrotation Yrotation Zrotation
						JOINT RForearm
						{
							OFFSET -29.541901 0.256001 -0.104698
							CHANNELS 6 Xposition Yposition Zposition Xrotation Yrotation Zrotation
							JOINT RHand
							{
								OFFSET -24.644196 0.147600 0.071499
								CHANNELS 6 Xposition Yposition Zposition Xrotation Yrotation Zrotation
								JOINT RFinger1
								{
									OFFSET -9.551399 -2.652900 0.835400
									CHANNELS 6 Xposition Yposition Zposition Xrotation Yrotation Zrotation
									JOINT RFinger11
									{
										OFFSET -3.572701 -0.629500 -0.871201
										CHANNELS 6 Xposition Yposition Zposition Xrotation Yrotation Zrotation
										JOINT RFinger12
										{
											OFFSET -2.439003 -0.429900 -0.595001
											CHANNELS 6 Xposition Yposition Zposition Xrotation Yrotation Zrotation
											End Site
											{
												OFFSET -1.735603 -0.281500 -0.518101
											}
										}
									}
								}
								JOINT RFinger2
								{
									OFFSET -9.693901 -0.231000 0.964699
									CHANNELS 6 Xposition Yposition Zposition Xrotation Yrotation Zrotation
									JOINT RFinger21
									{
										OFFSET -4.417503 0.026100 0.012299
										CHANNELS 6 Xposition Yposition Zposition Xrotation Yrotation Zrotation
										JOINT RFinger22
										{
											OFFSET -2.448601 0.015000 0.007500
											CHANNELS 6 Xposition Yposition Zposition Xrotation Yrotation Zrotation
											End Site
											{
												OFFSET -2.199303 -0.002900 -0.155300
											}
										}
									}
								}
								JOINT RFinger3
								{
									OFFSET -9.186996 2.173501 0.643799
									CHANNELS 6 Xposition Yposition Zposition Xrotation Yrotation Zrotation
									JOINT RFinger31
									{
										OFFSET -4.008400 0.251000 -0.202900
										CHANNELS 6 Xposition Yposition Zposition Xrotation Yrotation Zrotation
										JOINT RFinger32
										{
											OFFSET -2.284203 0.143500 -0.114899
											CHANNELS 6 Xposition Yposition Zposition Xrotation Yrotation Zrotation
											End Site
											{
												OFFSET -2.019600 0.095500 -0.248299
											}
										}
									}
								}
								JOINT RFinger4
								{
									OFFSET -8.525200 3.753600 -0.647800
									CHANNELS 6 Xposition Yposition Zposition Xrotation Yrotation Zrotation
									JOINT RFinger41
									{
										OFFSET -2.465500 0.680600 -0.514099
										CHANNELS 6 Xposition Yposition Zposition Xrotation Yrotation Zrotation
										JOINT RFinger42
										{
											OFFSET -1.807999 0.499400 -0.376400
											CHANNELS 6 Xposition Yposition Zposition Xrotation Yrotation Zrotation
											End Site
											{
												OFFSET -1.604698 0.368200 -0.440899
											}
										}
									}
								}
								JOINT RFinger0
								{
									OFFSET -1.975899 -1.497799 -1.495399
									CHANNELS 6 Xposition Yposition Zposition Xrotation Yrotation Zrotation
									JOINT RFinger01
									{
										OFFSET -3.678703 -2.773600 -1.208302
										CHANNELS 6 Xposition Yposition Zposition Xrotation Yrotation Zrotation
										JOINT RFinger02
										{
											OFFSET -2.422302 -1.745200 -0.866699
											CHANNELS 6 Xposition Yposition Zposition Xrotation Yrotation Zrotation
											End Site
											{
												OFFSET -1.781303 -1.219800 -0.613201
											}
										}
									}
								}
							}
						}
					}
				}
			}
		}
	}
	JOINT RThigh
	{
		OFFSET -10.956100 0.898699 4.188600
		CHANNELS 6 Xposition Yposition Zposition Xrotation Yrotation Zrotation
		JOINT RShin
		{
			OFFSET -0.793200 0.000007 -43.115398
			CHANNELS 6 Xposition Yposition Zposition Xrotation Yrotation Zrotation
			JOINT RFoot
			{
				OFFSET 0.000000 0.000007 -42.336796
				CHANNELS 6 Xposition Yposition Zposition Xrotation Yrotation Zrotation
				JOINT RToe
				{
					OFFSET 0.000000 -9.730399 -4.653198
					CHANNELS 6 Xposition Yposition Zposition Xrotation Yrotation Zrotation
					End Site
					{
						OFFSET 0.000000 -6.527802 0.000000
					}
				}
			}
		}
	}
	JOINT LThigh
	{
		OFFSET 10.955900 0.898799 4.188900
		CHANNELS 6 Xposition Yposition Zposition Xrotation Yrotation Zrotation
		JOINT LShin
		{
			OFFSET 0.793300 0.000007 -43.115700
			CHANNELS 6 Xposition Yposition Zposition Xrotation Yrotation Zrotation
			JOINT LFoot
			{
				OFFSET 0.000000 0.000007 -42.336796
				CHANNELS 6 Xposition Yposition Zposition Xrotation Yrotation Zrotation
				JOINT LToe
				{
					OFFSET 0.000000 -9.730499 -4.653198
					CHANNELS 6 Xposition Yposition Zposition Xrotation Yrotation Zrotation
					End Site
					{
						OFFSET 0.000000 -6.527802 0.000000
					}
				}
			}
		}
	}
}
MOTION
Frames: 4
Frame Time: 0.041667
-0.116900 -3.057020 77.890808 8.700771 2.139239 0.578373 0.000000 5.515804 9.266316 -1.214819 0.912686 0.563222 -0.000000 -0.397603 8.456194 -1.214818 0.912686 0.563221 0.000002 2.096196 10.463497 -1.214818 0.912686 0.563221 -0.000001 0.441297 23.579308 -15.131758 -4.321810 -1.815990 -0.000100 -3.621803 13.315487 -1.051563 -2.932480 -0.114508 2.142498 -7.016498 22.755213 -0.000004 14.525895 -0.000048 12.516605 5.281296 3.263880 29.323754 51.241425 -30.194719 29.541914 0.256000 -0.104700 0.056976 -0.004079 -21.344377 24.644205 0.147599 0.071498 0.000002 -0.000003 -0.000002 9.551379 -2.652906 0.835310 0.000003 0.000002 -0.000002 3.572681 -0.629506 -0.871200 0.000009 -0.000004 0.000008 2.438986 -0.429895 -0.594902 0.000003 -0.000002 0.000001 9.693861 -0.231006 0.964596 0.000003 -0.000002 -0.000003 4.417397 0.026102 0.012309 0.000003 0.000000 0.000000 2.448601 0.014902 0.007484 0.000001 0.000000 0.000000 9.186980 2.173496 0.643802 0.000002 -0.000001 0.000002 4.008409 0.250999 -0.202921 0.000002 0.000002 0.000001 2.284195 0.143495 -0.114905 0.000008 0.000000 -0.000001 8.525160 3.753595 -0.647788 0.000004 -0.000002 0.000001 2.465513 0.680599 -0.514208 -0.000001 -0.000002 0.000002 1.808009 0.499404 -0.376515 -0.000002 0.000003 0.000000 1.975891 -1.497906 -1.495492 -0.000000 -0.000001 -0.000009 3.678705 -2.773503 -1.208085 0.000007 0.000002 0.000003 2.422390 -1.745197 -0.866793 -0.000003 -0.000004 -0.000003 -2.142496 -7.016397 22.755182 0.000006 -14.491621 -0.000003 -12.518777 5.282219 3.264527 66.295544 -18.121323 61.870128 -29.541914 0.256005 -0.104692 0.054339 0.001231 17.775409 -24.644203 0.147596 0.071490 0.000003 -0.000001 0.000000 -9.551399 -2.652897 0.835399 0.000002 0.000000 -0.000000 -3.572661 -0.629505 -0.871194 -0.000001 0.000001 -0.000000 -2.438990 -0.429902 -0.595001 -0.000002 0.000006 -0.000003 -9.693909 -0.230999 0.964701 0.000003 -0.000000 0.000001 -4.417480 0.026097 0.012299 -0.000002 0.000001 -0.000000 -2.448626 0.015001 0.007504 0.000002 -0.000002 -0.000001 -9.187005 2.173501 0.643801 0.000004 -0.000001 -0.000001 -4.008376 0.251001 -0.202896 -0.000000 0.000001 0.000000 -2.284200 0.143504 -0.114895 -0.000003 0.000002 -0.000001 -8.525199 3.753594 -0.647803 0.000002 0.000001 0.000001 -2.465463 0.680591 -0.514084 0.000005 0.000000 0.000007 -1.807980 0.499396 -0.376400 -0.000007 0.000005 0.000005 -1.975899 -1.497799 -1.495395 0.000004 0.000000 -0.000000 -3.678704 -2.773594 -1.208291 0.000003 -0.000001 0.000009 -2.422299 -1.745198 -0.866710 -0.000008 -0.000005 -0.000007 -10.956101 0.898702 4.188604 -16.915592 -2.255674 0.335220 -0.793197 0.000009 -43.115410 5.876955 -0.000001 0.000002 -0.000002 0.000008 -42.336792 0.528011 -0.533959 1.129738 0.000003 -9.730397 -4.653198 -0.000004 0.000000 0.000001 10.955901 0.898805 4.188912 -12.655922 -1.362273 1.670483 0.793299 0.000009 -43.115677 1.451011 -0.000000 0.000000 0.000002 0.000012 -42.336777 0.492070 -0.298809 0.631830 -0.000001 -9.730499 -4.653191 0.000003 -0.000000 0.000000 
-0.146700 -3.098215 77.909134 8.626076 2.198821 0.649491 -0.000000 5.515805 9.266309 -1.203424 0.908900 0.556279 0.000000 -0.397605 8.456173 -1.203417 0.908900 0.556279 0.000002 2.096197 10.463497 -1.203427 0.908900 0.556279 -0.000002 0.441297 23.579294 -15.065871 -4.389108 -1.841311 -0.000099 -3.621802 13.315497 -2.632309 -4.226284 -0.223497 2.142499 -7.016498 22.755207 -0.000749 14.525584 0.000213 12.516596 5.281298 3.263893 30.817773 51.853311 -31.393291 29.541904 0.255998 -0.104704 0.048554 -0.004771 -21.364699 24.644222 0.147603 0.071500 0.000001 -0.000001 0.000003 9.551401 -2.652897 0.835304 0.000000 0.000002 0.000001 3.572684 -0.629512 -0.871212 0.000006 -0.000001 0.000007 2.438984 -0.429899 -0.594899 0.000009 -0.000004 -0.000001 9.693877 -0.231002 0.964600 0.000002 -0.000001 0.000001 4.417396 0.026100 0.012301 0.000000 -0.000001 0.000002 2.448600 0.014897 0.007489 0.000003 -0.000001 0.000002 9.187003 2.173502 0.643803 0.000001 0.000000 0.000004 4.008408 0.251004 -0.202922 0.000004 0.000000 0.000000 2.284234 0.143503 -0.114905 0.000000 0.000001 0.000000 8.525191 3.753603 -0.647797 0.000002 0.000000 0.000006 2.465513 0.680601 -0.514213 -0.000000 -0.000001 0.000005 1.808000 0.499404 -0.376516 -0.000000 0.000001 -0.000000 1.975907 -1.497901 -1.495489 0.000001 0.000000 -0.000003 3.678705 -2.773497 -1.208095 0.000005 0.000002 0.000007 2.422400 -1.745194 -0.866801 -0.000002 -0.000002 -0.000002 -2.142497 -7.016395 22.755186 -0.000339 -14.500017 -0.000208 -12.518781 5.282221 3.264516 66.268647 -18.417113 61.708485 -29.541903 0.256005 -0.104693 0.052234 0.000176 17.917801 -24.644173 0.147596 0.071490 0.000003 -0.000000 0.000000 -9.551401 -2.652899 0.835406 -0.000003 -0.000002 -0.000000 -3.572682 -0.629507 -0.871191 0.000002 0.000004 0.000002 -2.438997 -0.429902 -0.595002 0.000003 0.000006 -0.000001 -9.693916 -0.230997 0.964710 -0.000001 0.000000 -0.000000 -4.417489 0.026098 0.012303 -0.000000 -0.000001 -0.000001 -2.448610 0.015000 0.007505 0.000001 -0.000002 -0.000000 -9.186997 2.173504 0.643800 -0.000001 -0.000001 -0.000001 -4.008393 0.250994 -0.202899 0.000002 -0.000001 -0.000001 -2.284201 0.143504 -0.114902 -0.000001 0.000002 -0.000001 -8.525186 3.753593 -0.647807 0.000002 -0.000001 -0.000000 -2.465470 0.680590 -0.514085 0.000005 -0.000000 0.000004 -1.807987 0.499392 -0.376387 -0.000001 0.000006 0.000006 -1.975894 -1.497797 -1.495397 -0.000000 -0.000003 -0.000000 -3.678722 -2.773593 -1.208290 0.000002 -0.000004 0.000003 -2.422285 -1.745198 -0.866711 -0.000010 -0.000007 -0.000010 -10.956100 0.898703 4.188601 -16.703805 -2.301054 0.384169 -0.793197 0.000008 -43.115398 5.665032 -0.000001 0.000002 -0.000001 0.000011 -42.336788 0.756019 -0.508223 1.084883 0.000002 -9.730393 -4.653198 -0.000004 -0.000000 0.000001 10.955900 0.898804 4.188909 -12.597191 -1.407856 1.654384 0.793299 0.000010 -43.115688 1.492729 -0.000000 -0.000000 0.000002 0.000008 -42.336781 0.535395 -0.331469 0.702982 0.000001 -9.730500 -4.653191 0.000003 0.000000 0.000000 
-0.181900 -3.142818 77.927109 8.549272 2.262018 0.717421 -0.000000 5.515805 9.266307 -1.166743 0.897667 0.537063 -0.000001 -0.397602 8.456192 -1.166743 0.897665 0.537063 0.000000 2.096196 10.463499 -1.166741 0.897665 0.537063 -0.000003 0.441294 23.579313 -14.994746 -4.460562 -1.868049 -0.000100 -3.621797 13.315484 -3.673155 -5.072470 -0.314604 2.142501 -7.016504 22.755207 -0.001624 14.514415 -0.000587 12.516600 5.281295 3.263891 32.177390 52.435499 -32.312775 29.541920 0.255997 -0.104699 0.048068 -0.003918 -21.983312 24.644199 0.147594 0.071502 -0.000000 -0.000000 0.000001 9.551386 -2.652904 0.835303 0.000006 0.000002 -0.000001 3.572693 -0.629511 -0.871212 0.000007 0.000001 0.000008 2.438975 -0.429900 -0.594895 0.000006 -0.000005 -0.000004 9.693876 -0.231005 0.964594 0.000003 -0.000002 -0.000001 4.417390 0.026099 0.012302 0.000002 0.000001 0.000001 2.448576 0.014899 0.007490 0.000001 -0.000002 -0.000003 9.186988 2.173498 0.643801 0.000004 -0.000000 0.000002 4.008432 0.250999 -0.202919 0.000003 0.000003 0.000007 2.284226 0.143498 -0.114897 0.000003 0.000001 -0.000001 8.525183 3.753602 -0.647792 0.000002 -0.000001 0.000004 2.465506 0.680600 -0.514213 -0.000000 -0.000002 -0.000000 1.807999 0.499399 -0.376525 -0.000000 0.000001 -0.000000 1.975899 -1.497902 -1.495493 0.000002 -0.000001 -0.000008 3.678715 -2.773498 -1.208086 0.000005 0.000004 0.000001 2.422407 -1.745198 -0.866803 -0.000002 -0.000003 0.000001 -2.142496 -7.016402 22.755186 -0.000000 -14.507011 -0.000005 -12.518781 5.282222 3.264509 66.287444 -18.698155 61.642573 -29.541891 0.256005 -0.104686 0.046446 -0.001382 17.844142 -24.644188 0.147594 0.071491 0.000003 0.000000 -0.000001 -9.551393 -2.652898 0.835409 -0.000002 -0.000001 -0.000000 -3.572668 -0.629506 -0.871199 0.000001 0.000003 0.000002 -2.438978 -0.429900 -0.595002 -0.000000 0.000002 -0.000002 -9.693909 -0.230999 0.964705 0.000002 0.000000 0.000000 -4.417480 0.026097 0.012295 -0.000000 0.000000 -0.000000 -2.448623 0.015001 0.007506 0.000001 0.000001 -0.000000 -9.186996 2.173503 0.643802 0.000002 -0.000000 -0.000001 -4.008382 0.250996 -0.202899 -0.000002 0.000003 -0.000000 -2.284210 0.143504 -0.114899 -0.000000 -0.000001 -0.000001 -8.525186 3.753590 -0.647807 0.000002 -0.000001 -0.000000 -2.465471 0.680589 -0.514087 0.000009 0.000000 0.000006 -1.807981 0.499395 -0.376404 -0.000002 0.000003 0.000005 -1.975892 -1.497796 -1.495398 -0.000003 -0.000001 -0.000002 -3.678712 -2.773597 -1.208295 -0.000000 -0.000001 0.000003 -2.422315 -1.745195 -0.866707 -0.000009 -0.000006 -0.000000 -10.956101 0.898703 4.188598 -16.450647 -2.362895 0.435128 -0.793197 0.000009 -43.115395 5.334496 -0.000001 0.000002 -0.000002 0.000011 -42.336792 1.056554 -0.389028 0.835483 0.000003 -9.730396 -4.653206 -0.000002 0.000000 0.000001 10.955903 0.898805 4.188906 -12.529471 -1.464298 1.631171 0.793301 0.000006 -43.115685 1.525155 -0.000000 -0.000000 0.000001 0.000009 -42.336796 0.607389 -0.325775 0.692880 0.000001 -9.730497 -4.653192 0.000003 -0.000000 0.000000 
-0.248600 -3.183016 77.948418 8.474172 2.333976 0.783401 0.000000 5.515799 9.266309 -1.125470 0.885886 0.519160 -0.000000 -0.397603 8.456192 -1.125469 0.885885 0.519160 0.000001 2.096196 10.463491 -1.125466 0.885884 0.519159 -0.000001 0.441298 23.579296 -14.945820 -4.547688 -1.902298 -0.000099 -3.621800 13.315490 -2.517551 -3.896907 -0.202280 2.142501 -7.016501 22.755180 -0.006502 14.479882 -0.002208 12.516601 5.281302 3.263881 33.381860 52.766807 -33.243176 29.541904 0.255998 -0.104704 0.053451 -0.005397 -22.256622 24.644184 0.147599 0.071506 0.000001 -0.000000 -0.000001 9.551386 -2.652899 0.835310 0.000007 0.000002 0.000002 3.572710 -0.629505 -0.871205 0.000007 0.000003 0.000008 2.438977 -0.429896 -0.594897 0.000008 -0.000003 -0.000003 9.693870 -0.231000 0.964601 0.000005 -0.000001 0.000001 4.417404 0.026102 0.012306 0.000003 -0.000001 -0.000002 2.448577 0.014902 0.007485 0.000001 -0.000001 -0.000001 9.186981 2.173503 0.643800 0.000002 0.000000 0.000003 4.008409 0.250996 -0.202915 0.000002 0.000002 0.000002 2.284204 0.143498 -0.114905 0.000003 0.000002 0.000000 8.525184 3.753607 -0.647791 0.000005 -0.000000 0.000005 2.465513 0.680599 -0.514213 0.000002 -0.000001 0.000005 1.807999 0.499403 -0.376513 -0.000001 0.000000 -0.000001 1.975898 -1.497899 -1.495492 0.000008 -0.000002 -0.000006 3.678698 -2.773498 -1.208083 0.000007 0.000003 0.000003 2.422394 -1.745190 -0.866800 -0.000002 -0.000009 0.000001 -2.142495 -7.016398 22.755184 -0.001953 -14.511031 -0.001179 -12.518777 5.282220 3.264522 66.322148 -18.941001 61.648550 -29.541891 0.256007 -0.104692 0.046210 -0.000886 17.684579 -24.644205 0.147596 0.071494 0.000005 -0.000002 -0.000001 -9.551377 -2.652901 0.835416 0.000001 -0.000001 -0.000000 -3.572690 -0.629507 -0.871199 0.000005 0.000003 0.000001 -2.438991 -0.429899 -0.595006 0.000001 0.000005 -0.000000 -9.693909 -0.231001 0.964704 0.000001 -0.000000 -0.000000 -4.417489 0.026097 0.012297 -0.000001 -0.000000 -0.000000 -2.448633 0.015003 0.007503 0.000001 -0.000002 0.000000 -9.186990 2.173500 0.643798 -0.000001 -0.000001 -0.000001 -4.008390 0.250999 -0.202896 -0.000001 0.000002 0.000000 -2.284186 0.143503 -0.114901 -0.000003 0.000002 -0.000001 -8.525185 3.753592 -0.647805 0.000001 -0.000000 -0.000001 -2.465462 0.680586 -0.514086 0.000006 0.000001 0.000005 -1.807981 0.499396 -0.376395 -0.000000 0.000004 0.000005 -1.975883 -1.497797 -1.495392 -0.000003 0.000001 0.000001 -3.678705 -2.773603 -1.208294 -0.000001 -0.000002 0.000011 -2.422287 -1.745195 -0.866702 -0.000008 -0.000009 -0.000003 -10.956102 0.898698 4.188599 -16.265737 -2.457269 0.486884 -0.793197 0.000007 -43.115402 5.172107 -0.000001 0.000002 -0.000001 0.000009 -42.336792 1.322232 -0.285689 0.612277 0.000003 -9.730393 -4.653198 -0.000000 -0.000000 0.000001 10.955902 0.898799 4.188902 -12.437278 -1.542781 1.606741 0.793298 0.000009 -43.115688 1.490582 -0.000000 -0.000000 0.000002 0.000012 -42.336792 0.677181 -0.332927 0.710190 -0.000000 -9.730499 -4.653184 0.000003 0.000000 0.000000 
